<mxfile host="app.diagrams.net" agent="Mozilla/5.0 (Windows NT 10.0; Win64; x64) AppleWebKit/537.36 (KHTML, like Gecko) Chrome/131.0.0.0 Safari/537.36" version="25.0.3">
  <diagram name="Página-1" id="4fPj8FKTWWKvgSlPfXeu">
    <mxGraphModel dx="880" dy="1603" grid="1" gridSize="10" guides="1" tooltips="1" connect="1" arrows="1" fold="1" page="1" pageScale="1" pageWidth="827" pageHeight="1169" math="0" shadow="0">
      <root>
        <mxCell id="0" />
        <mxCell id="1" parent="0" />
        <mxCell id="tzBEl5uezkZAkphJzdvv-1" value="&lt;span style=&quot;font-size: 13px;&quot;&gt;Avaliar o aplicativo pelo próprio sistema&lt;/span&gt;" style="swimlane;whiteSpace=wrap;html=1;" parent="1" vertex="1">
          <mxGeometry x="71.74000000000001" y="250" width="704" height="110" as="geometry" />
        </mxCell>
        <mxCell id="tzBEl5uezkZAkphJzdvv-2" value="&lt;div&gt;&lt;font style=&quot;font-size: 13px;&quot;&gt;d: mostrar o formato de cinco estrelas a serem preenchidas AND exibir uma caixa de texto abaixo&lt;/font&gt;&lt;/div&gt;&lt;font style=&quot;font-size: 13px;&quot;&gt;d+u: escolher uma determinada quantidade de estrelas para expressar a sua opinião (0: muito ruim, 5: muito boa)&lt;/font&gt;&lt;div&gt;&lt;font style=&quot;font-size: 13px;&quot;&gt;AND escrever uma avaliação do aplicativo, justificando a escolha da quantidade de estrelas e deixando uma&amp;nbsp;&lt;/font&gt;&lt;/div&gt;&lt;div&gt;&lt;font style=&quot;font-size: 13px;&quot;&gt;sugestão quando possível&lt;/font&gt;&lt;/div&gt;" style="text;html=1;align=left;verticalAlign=middle;resizable=0;points=[];autosize=1;strokeColor=none;fillColor=none;rotation=0;" parent="tzBEl5uezkZAkphJzdvv-1" vertex="1">
          <mxGeometry x="18" y="20" width="680" height="80" as="geometry" />
        </mxCell>
        <mxCell id="tzBEl5uezkZAkphJzdvv-5" value="" style="ellipse;whiteSpace=wrap;html=1;aspect=fixed;fillColor=#000000;" parent="1" vertex="1">
          <mxGeometry x="945" y="-140" width="20" height="20" as="geometry" />
        </mxCell>
        <mxCell id="tzBEl5uezkZAkphJzdvv-84" value="" style="whiteSpace=wrap;html=1;fontStyle=1;startSize=23;fillColor=#000000;direction=south;" parent="1" vertex="1">
          <mxGeometry x="401.87" y="470" width="43.75" height="50" as="geometry" />
        </mxCell>
        <mxCell id="tzBEl5uezkZAkphJzdvv-92" value="" style="endArrow=classic;html=1;rounded=0;exitX=0.5;exitY=1;exitDx=0;exitDy=0;entryX=0;entryY=0.5;entryDx=0;entryDy=0;" parent="1" source="tzBEl5uezkZAkphJzdvv-1" target="tzBEl5uezkZAkphJzdvv-84" edge="1">
          <mxGeometry relative="1" as="geometry">
            <mxPoint x="423.9949999999999" y="600" as="sourcePoint" />
            <mxPoint x="330" y="540" as="targetPoint" />
          </mxGeometry>
        </mxCell>
        <mxCell id="tzBEl5uezkZAkphJzdvv-93" value="&lt;div&gt;&lt;br&gt;&lt;/div&gt;&lt;div&gt;&lt;div&gt;d: apresentar a avaliação para o usuário&lt;/div&gt;u: confirmar a avaliação&lt;/div&gt;" style="edgeLabel;resizable=0;html=1;;align=center;verticalAlign=middle;fontSize=12;" parent="tzBEl5uezkZAkphJzdvv-92" connectable="0" vertex="1">
          <mxGeometry relative="1" as="geometry" />
        </mxCell>
        <mxCell id="tzBEl5uezkZAkphJzdvv-101" value="" style="ellipse;html=1;shape=endState;fillColor=#000000;strokeColor=#000000;" parent="1" vertex="1">
          <mxGeometry x="910" y="690" width="30" height="30" as="geometry" />
        </mxCell>
        <mxCell id="tzBEl5uezkZAkphJzdvv-102" value="" style="endArrow=classic;html=1;rounded=0;exitX=1;exitY=0.5;exitDx=0;exitDy=0;entryX=0;entryY=0;entryDx=0;entryDy=0;" parent="1" source="tzBEl5uezkZAkphJzdvv-84" target="tzBEl5uezkZAkphJzdvv-101" edge="1">
          <mxGeometry relative="1" as="geometry">
            <mxPoint x="420" y="790" as="sourcePoint" />
            <mxPoint x="520" y="790" as="targetPoint" />
            <Array as="points">
              <mxPoint x="424" y="680" />
            </Array>
          </mxGeometry>
        </mxCell>
        <mxCell id="tzBEl5uezkZAkphJzdvv-104" value="" style="rounded=1;whiteSpace=wrap;html=1;fillColor=#bac8d3;strokeColor=#23445d;" parent="1" vertex="1">
          <mxGeometry x="150" width="100" height="30" as="geometry" />
        </mxCell>
        <mxCell id="tzBEl5uezkZAkphJzdvv-108" value="" style="endArrow=classic;html=1;rounded=0;exitX=0.5;exitY=1;exitDx=0;exitDy=0;entryX=0.5;entryY=0;entryDx=0;entryDy=0;" parent="1" source="tzBEl5uezkZAkphJzdvv-104" target="tzBEl5uezkZAkphJzdvv-110" edge="1">
          <mxGeometry relative="1" as="geometry">
            <mxPoint x="70" y="230" as="sourcePoint" />
            <mxPoint x="112" y="240" as="targetPoint" />
          </mxGeometry>
        </mxCell>
        <mxCell id="tzBEl5uezkZAkphJzdvv-109" value="u: sair" style="edgeLabel;resizable=0;html=1;;align=center;verticalAlign=middle;fontSize=12;" parent="tzBEl5uezkZAkphJzdvv-108" connectable="0" vertex="1">
          <mxGeometry relative="1" as="geometry" />
        </mxCell>
        <mxCell id="tzBEl5uezkZAkphJzdvv-110" value="" style="ellipse;html=1;shape=endState;fillColor=#000000;strokeColor=#000000;" parent="1" vertex="1">
          <mxGeometry x="185" y="99" width="30" height="30" as="geometry" />
        </mxCell>
        <mxCell id="tzBEl5uezkZAkphJzdvv-112" value="" style="endArrow=classic;html=1;rounded=0;exitX=0.5;exitY=1;exitDx=0;exitDy=0;" parent="1" source="tzBEl5uezkZAkphJzdvv-5" target="tzBEl5uezkZAkphJzdvv-114" edge="1">
          <mxGeometry relative="1" as="geometry">
            <mxPoint x="410" y="70" as="sourcePoint" />
            <mxPoint x="424" y="-10" as="targetPoint" />
          </mxGeometry>
        </mxCell>
        <mxCell id="tzBEl5uezkZAkphJzdvv-114" value="Selecionar a forma de avaliação" style="swimlane;whiteSpace=wrap;html=1;startSize=30;" parent="1" vertex="1">
          <mxGeometry x="670" width="570" height="90" as="geometry" />
        </mxCell>
        <mxCell id="tzBEl5uezkZAkphJzdvv-119" value="d: exibir uma caixa de texto e um botão direcionando o usuário à página do aplicativo na PlayStore&lt;div&gt;d+u: clicar na caixa de texto para avaliar o sistema OR clicar no botão direcionando para a PlayStore&lt;/div&gt;" style="text;html=1;align=left;verticalAlign=middle;resizable=0;points=[];autosize=1;strokeColor=none;fillColor=none;" parent="tzBEl5uezkZAkphJzdvv-114" vertex="1">
          <mxGeometry x="1.5" y="39" width="560" height="40" as="geometry" />
        </mxCell>
        <mxCell id="tzBEl5uezkZAkphJzdvv-117" value="&lt;div style=&quot;&quot;&gt;precond: o usuário já está logado no sistema e tem acesso à internet&lt;/div&gt;&lt;div style=&quot;&quot;&gt;&lt;span style=&quot;background-color: initial;&quot;&gt;u: selecionar o ícone de avaliar sistema&lt;/span&gt;&lt;/div&gt;" style="text;html=1;align=center;verticalAlign=middle;whiteSpace=wrap;rounded=0;fillColor=#f5f5f5;fontColor=#333333;strokeColor=none;" parent="1" vertex="1">
          <mxGeometry x="763.5" y="-90" width="383" height="40" as="geometry" />
        </mxCell>
        <mxCell id="tzBEl5uezkZAkphJzdvv-120" value="" style="endArrow=classic;html=1;rounded=0;entryX=0.5;entryY=0;entryDx=0;entryDy=0;exitX=0.25;exitY=1;exitDx=0;exitDy=0;" parent="1" source="tzBEl5uezkZAkphJzdvv-114" target="tzBEl5uezkZAkphJzdvv-124" edge="1">
          <mxGeometry relative="1" as="geometry">
            <mxPoint x="820" y="100" as="sourcePoint" />
            <mxPoint x="424" y="120" as="targetPoint" />
            <Array as="points">
              <mxPoint x="813" y="120" />
              <mxPoint x="424" y="120" />
            </Array>
          </mxGeometry>
        </mxCell>
        <mxCell id="tzBEl5uezkZAkphJzdvv-121" value="u: clicar em deixar uma avaliação" style="edgeLabel;resizable=0;html=1;;align=center;verticalAlign=middle;fontSize=12;" parent="tzBEl5uezkZAkphJzdvv-120" connectable="0" vertex="1">
          <mxGeometry relative="1" as="geometry" />
        </mxCell>
        <mxCell id="tzBEl5uezkZAkphJzdvv-124" value="" style="whiteSpace=wrap;html=1;fontStyle=1;startSize=23;fillColor=#000000;" parent="1" vertex="1">
          <mxGeometry x="404.74" y="170" width="38" height="37.5" as="geometry" />
        </mxCell>
        <mxCell id="tzBEl5uezkZAkphJzdvv-125" value="" style="edgeStyle=orthogonalEdgeStyle;rounded=0;orthogonalLoop=1;jettySize=auto;html=1;entryX=0.5;entryY=0;entryDx=0;entryDy=0;exitX=0.5;exitY=1;exitDx=0;exitDy=0;" parent="1" source="tzBEl5uezkZAkphJzdvv-124" target="tzBEl5uezkZAkphJzdvv-1" edge="1">
          <mxGeometry relative="1" as="geometry">
            <mxPoint x="461" y="168" as="sourcePoint" />
            <mxPoint x="460" y="220" as="targetPoint" />
          </mxGeometry>
        </mxCell>
        <mxCell id="tzBEl5uezkZAkphJzdvv-130" value="" style="endArrow=classic;html=1;rounded=0;dashed=1;dashPattern=8 8;exitX=1;exitY=0.5;exitDx=0;exitDy=0;entryX=1;entryY=0.5;entryDx=0;entryDy=0;" parent="1" source="xjnRb1O9tELXAYWkc7Dy-15" target="tzBEl5uezkZAkphJzdvv-114" edge="1">
          <mxGeometry relative="1" as="geometry">
            <mxPoint x="1776.5" y="420" as="sourcePoint" />
            <mxPoint x="1270" y="40" as="targetPoint" />
            <Array as="points">
              <mxPoint x="1650" y="460" />
              <mxPoint x="1650" y="45" />
            </Array>
          </mxGeometry>
        </mxCell>
        <mxCell id="tzBEl5uezkZAkphJzdvv-131" value="u: cancelar a avaliação" style="edgeLabel;resizable=0;html=1;;align=center;verticalAlign=middle;fontSize=12;" parent="tzBEl5uezkZAkphJzdvv-130" connectable="0" vertex="1">
          <mxGeometry relative="1" as="geometry">
            <mxPoint x="10" y="15" as="offset" />
          </mxGeometry>
        </mxCell>
        <mxCell id="TnPmGFaWkGhMJ78jl2mt-8" value="" style="endArrow=classic;html=1;rounded=0;dashed=1;dashPattern=8 8;entryX=0;entryY=0.5;entryDx=0;entryDy=0;exitX=0.5;exitY=1;exitDx=0;exitDy=0;" parent="1" source="tzBEl5uezkZAkphJzdvv-84" target="tzBEl5uezkZAkphJzdvv-1" edge="1">
          <mxGeometry relative="1" as="geometry">
            <mxPoint x="347.12" y="449" as="sourcePoint" />
            <mxPoint x="-227.13" y="330" as="targetPoint" />
            <Array as="points">
              <mxPoint x="40" y="495" />
              <mxPoint x="40" y="305" />
            </Array>
          </mxGeometry>
        </mxCell>
        <mxCell id="TnPmGFaWkGhMJ78jl2mt-9" value="u: editar a avaliação" style="edgeLabel;resizable=0;html=1;;align=center;verticalAlign=middle;fontSize=12;" parent="TnPmGFaWkGhMJ78jl2mt-8" connectable="0" vertex="1">
          <mxGeometry relative="1" as="geometry">
            <mxPoint x="89" as="offset" />
          </mxGeometry>
        </mxCell>
        <mxCell id="TnPmGFaWkGhMJ78jl2mt-12" value="" style="endArrow=none;html=1;rounded=0;dashed=1;dashPattern=8 8;exitX=0.75;exitY=0;exitDx=0;exitDy=0;" parent="1" source="tzBEl5uezkZAkphJzdvv-84" edge="1">
          <mxGeometry width="50" height="50" relative="1" as="geometry">
            <mxPoint x="450" y="500" as="sourcePoint" />
            <mxPoint x="1650" y="460" as="targetPoint" />
            <Array as="points">
              <mxPoint x="1650" y="508" />
            </Array>
          </mxGeometry>
        </mxCell>
        <mxCell id="xjnRb1O9tELXAYWkc7Dy-3" value="" style="endArrow=classic;html=1;rounded=0;entryX=0.5;entryY=0;entryDx=0;entryDy=0;exitX=0.75;exitY=1;exitDx=0;exitDy=0;" parent="1" source="tzBEl5uezkZAkphJzdvv-114" target="xjnRb1O9tELXAYWkc7Dy-5" edge="1">
          <mxGeometry relative="1" as="geometry">
            <mxPoint x="1000" y="110" as="sourcePoint" />
            <mxPoint x="1384" y="190" as="targetPoint" />
            <Array as="points">
              <mxPoint x="1098" y="120" />
              <mxPoint x="1332" y="120" />
            </Array>
          </mxGeometry>
        </mxCell>
        <mxCell id="xjnRb1O9tELXAYWkc7Dy-4" value="u: clicar no botão da PlayStore" style="edgeLabel;resizable=0;html=1;;align=center;verticalAlign=middle;fontSize=12;" parent="xjnRb1O9tELXAYWkc7Dy-3" connectable="0" vertex="1">
          <mxGeometry relative="1" as="geometry">
            <mxPoint x="-6" as="offset" />
          </mxGeometry>
        </mxCell>
        <mxCell id="xjnRb1O9tELXAYWkc7Dy-5" value="" style="whiteSpace=wrap;html=1;fontStyle=1;startSize=23;fillColor=#000000;" parent="1" vertex="1">
          <mxGeometry x="1313" y="170" width="38" height="37.5" as="geometry" />
        </mxCell>
        <mxCell id="xjnRb1O9tELXAYWkc7Dy-6" value="&lt;span style=&quot;font-size: 13px;&quot;&gt;Confirmar a saída do aplicativo&lt;/span&gt;" style="swimlane;whiteSpace=wrap;html=1;" parent="1" vertex="1">
          <mxGeometry x="1038" y="260" width="588" height="110" as="geometry" />
        </mxCell>
        <mxCell id="xjnRb1O9tELXAYWkc7Dy-7" value="&lt;div&gt;&lt;font style=&quot;font-size: 13px;&quot;&gt;d: mostrar uma mensagem perguntando se o usuário tem certeza que deseja sair do aplicativo&lt;/font&gt;&lt;/div&gt;&lt;font style=&quot;font-size: 13px;&quot;&gt;d+u: escolher se deseja sair do sistema&lt;/font&gt;" style="text;html=1;align=left;verticalAlign=middle;resizable=0;points=[];autosize=1;strokeColor=none;fillColor=none;rotation=0;" parent="xjnRb1O9tELXAYWkc7Dy-6" vertex="1">
          <mxGeometry x="18" y="40" width="570" height="40" as="geometry" />
        </mxCell>
        <mxCell id="xjnRb1O9tELXAYWkc7Dy-9" value="" style="endArrow=classic;html=1;rounded=0;exitX=0.5;exitY=1;exitDx=0;exitDy=0;entryX=0.5;entryY=0;entryDx=0;entryDy=0;" parent="1" source="xjnRb1O9tELXAYWkc7Dy-6" target="xjnRb1O9tELXAYWkc7Dy-15" edge="1">
          <mxGeometry relative="1" as="geometry">
            <mxPoint x="1349.9999999999995" y="398" as="sourcePoint" />
            <mxPoint x="1332" y="480" as="targetPoint" />
            <Array as="points">
              <mxPoint x="1332" y="460" />
            </Array>
          </mxGeometry>
        </mxCell>
        <mxCell id="xjnRb1O9tELXAYWkc7Dy-10" value="u: escolher se deseja sair do aplicativo" style="edgeLabel;resizable=0;html=1;;align=center;verticalAlign=middle;fontSize=12;" parent="xjnRb1O9tELXAYWkc7Dy-9" connectable="0" vertex="1">
          <mxGeometry relative="1" as="geometry">
            <mxPoint x="-6" as="offset" />
          </mxGeometry>
        </mxCell>
        <mxCell id="xjnRb1O9tELXAYWkc7Dy-14" value="" style="endArrow=classic;html=1;rounded=0;exitX=0.5;exitY=1;exitDx=0;exitDy=0;entryX=0.5;entryY=0;entryDx=0;entryDy=0;" parent="1" source="xjnRb1O9tELXAYWkc7Dy-5" target="xjnRb1O9tELXAYWkc7Dy-6" edge="1">
          <mxGeometry width="50" height="50" relative="1" as="geometry">
            <mxPoint x="1070" y="240" as="sourcePoint" />
            <mxPoint x="1120" y="190" as="targetPoint" />
          </mxGeometry>
        </mxCell>
        <mxCell id="xjnRb1O9tELXAYWkc7Dy-15" value="" style="whiteSpace=wrap;html=1;fontStyle=1;startSize=23;fillColor=#000000;" parent="1" vertex="1">
          <mxGeometry x="1313" y="442.5" width="38" height="37.5" as="geometry" />
        </mxCell>
        <mxCell id="xjnRb1O9tELXAYWkc7Dy-17" value="" style="endArrow=classic;html=1;rounded=0;exitX=0.5;exitY=1;exitDx=0;exitDy=0;entryX=1;entryY=0;entryDx=0;entryDy=0;" parent="1" source="xjnRb1O9tELXAYWkc7Dy-15" target="tzBEl5uezkZAkphJzdvv-101" edge="1">
          <mxGeometry relative="1" as="geometry">
            <mxPoint x="1331.47" y="530" as="sourcePoint" />
            <mxPoint x="970" y="650" as="targetPoint" />
            <Array as="points">
              <mxPoint x="1331" y="670" />
            </Array>
          </mxGeometry>
        </mxCell>
        <mxCell id="xjnRb1O9tELXAYWkc7Dy-18" value="d: redirecionar para a página do aplicativo na PlayStore" style="edgeLabel;resizable=0;html=1;;align=center;verticalAlign=middle;fontSize=12;" parent="xjnRb1O9tELXAYWkc7Dy-17" connectable="0" vertex="1">
          <mxGeometry relative="1" as="geometry">
            <mxPoint x="92" y="-54" as="offset" />
          </mxGeometry>
        </mxCell>
      </root>
    </mxGraphModel>
  </diagram>
</mxfile>
